<svg width="400" height="300" viewBox="0 0 400 300" fill="none" xmlns="http://www.w3.org/2000/svg">
  <defs>
    <linearGradient id="bg" x1="0" y1="0" x2="400" y2="300" gradientUnits="userSpaceOnUse">
      <stop offset="0" stop-color="#0F172A" />
      <stop offset="1" stop-color="#111827" />
    </linearGradient>
    <linearGradient id="accent" x1="32" y1="36" x2="368" y2="268" gradientUnits="userSpaceOnUse">
      <stop offset="0" stop-color="#14F5B6" stop-opacity="0.9" />
      <stop offset="1" stop-color="#14F5B6" stop-opacity="0.05" />
    </linearGradient>
  </defs>
  <rect width="400" height="300" rx="18" fill="url(#bg)" />
  <rect x="24" y="24" width="352" height="252" rx="14" fill="url(#accent)" stroke="#1F2937" />
  <rect x="48" y="60" width="120" height="16" rx="8" fill="#14F5B6" fill-opacity="0.65" />
  <rect x="48" y="92" width="220" height="10" rx="5" fill="#E5E7EB" fill-opacity="0.55" />
  <rect x="48" y="112" width="200" height="10" rx="5" fill="#E5E7EB" fill-opacity="0.4" />
  <rect x="48" y="152" width="120" height="72" rx="10" fill="#0B1220" stroke="#14F5B6" stroke-opacity="0.6" />
  <rect x="188" y="152" width="160" height="16" rx="8" fill="#14F5B6" fill-opacity="0.5" />
  <rect x="188" y="178" width="140" height="10" rx="5" fill="#E5E7EB" fill-opacity="0.45" />
  <rect x="188" y="198" width="120" height="10" rx="5" fill="#E5E7EB" fill-opacity="0.35" />
  <rect x="188" y="218" width="96" height="10" rx="5" fill="#E5E7EB" fill-opacity="0.3" />
  <circle cx="328" cy="72" r="10" fill="#14F5B6" fill-opacity="0.65" />
  <circle cx="354" cy="72" r="6" fill="#14F5B6" fill-opacity="0.35" />
  <text x="48" y="248" fill="#E5E7EB" fill-opacity="0.7" font-family="Arial, sans-serif" font-size="12">
    Portfolio React Tailwind
  </text>
</svg>
